<svg width="104" height="108" viewBox="0 0 104 108" fill="none" xmlns="http://www.w3.org/2000/svg">
<path fill-rule="evenodd" clip-rule="evenodd" d="M5.90424 44.1441C4.18084 27.0648 44.4158 7.14312 66.515 17.8475C88.6142 28.5518 97.5409 75.5249 85.3097 82.5866C73.0785 89.6483 57.8389 63.2526 48.32 58.4124C38.8012 53.5723 7.62765 61.2234 5.90424 44.1441Z" fill="#CFB495"/>
<path d="M53 18H55V20H53V18Z" fill="black"/>
<path d="M47.3326 19.2141L49.2866 18.5347L50.0966 20.1738L48.1425 20.8532L47.3326 19.2141Z" fill="black"/>
<path d="M43.093 22.0072L44.5887 20.7525L46.0845 22.0072L44.5887 23.2618L43.093 22.0072Z" fill="black"/>
<path d="M40.4642 25.9383L41.2741 24.2992L43.2282 24.9786L42.4182 26.6177L40.4642 25.9383Z" fill="black"/>
<path d="M63.9191 24.9739L65.8731 24.2945L66.6831 25.9336L64.729 26.613L63.9191 24.9739Z" fill="black"/>
<path d="M61.0396 22.0085L62.5353 20.7538L64.0311 22.0085L62.5353 23.2631L61.0396 22.0085Z" fill="black"/>
<path d="M57.0497 20.1729L57.8596 18.5338L59.8137 19.2132L59.0037 20.8524L57.0497 20.1729Z" fill="black"/>
<path d="M80.9907 54.8613L77.8178 31.6976C77.788 31.4808 77.6648 31.2809 77.4716 31.1355C77.2785 30.9902 77.0287 30.9096 76.7697 30.9091H62.9622C63.0008 30.6133 63.0202 30.3159 63.0203 30.0182C63.0203 27.8917 62.0175 25.8522 60.2324 24.3485C58.4473 22.8448 56.0261 22 53.5016 22C50.9771 22 48.5559 22.8448 46.7708 24.3485C44.9857 25.8522 43.9828 27.8917 43.9828 30.0182C43.983 30.3159 44.0024 30.6133 44.041 30.9091H30.2335C29.9741 30.9092 29.7238 30.9896 29.5302 31.1349C29.3366 31.2803 29.2131 31.4805 29.1833 31.6976L26.0104 54.8613C25.9919 54.9944 26.0093 55.1293 26.0613 55.2559C26.1133 55.3826 26.1986 55.4977 26.3107 55.5927C27.5147 56.6072 28.1911 57.983 28.1911 59.4174C28.1911 60.8519 27.5147 62.2277 26.3107 63.2421C26.1624 63.3668 26.0613 63.5257 26.0204 63.6989C25.9794 63.872 26.0005 64.0514 26.0808 64.2145C26.1612 64.3775 26.2972 64.5167 26.4716 64.6145C26.646 64.7123 26.851 64.7643 27.0606 64.7638H49.271C50.8358 64.7672 52.3453 64.2764 53.5016 63.3882C54.6579 64.2764 56.1673 64.7672 57.7321 64.7638H63.0203V70.1093C63.0204 70.2855 63.0824 70.4577 63.1987 70.6041C63.3149 70.7506 63.48 70.8648 63.6733 70.9322C63.8665 70.9996 64.0791 71.0172 64.2843 70.9829C64.4894 70.9485 64.6778 70.8637 64.8257 70.7391L68.3085 67.8054L71.7914 70.7391C71.9393 70.8637 72.1277 70.9485 72.3328 70.9829C72.538 71.0172 72.7506 70.9996 72.9438 70.9322C73.137 70.8648 73.3022 70.7506 73.4184 70.6041C73.5346 70.4577 73.5967 70.2855 73.5967 70.1093V64.7638H79.9426C80.1517 64.7638 80.3562 64.7115 80.5301 64.6136C80.7039 64.5157 80.8395 64.3766 80.9195 64.2138C80.9995 64.051 81.0205 63.8719 80.9797 63.6991C80.9389 63.5263 80.8382 63.3676 80.6903 63.243C79.4863 62.2286 78.81 60.8528 78.81 59.4183C78.81 57.9838 79.4863 56.6081 80.6903 55.5936C80.8026 55.4985 80.888 55.3832 80.94 55.2564C80.992 55.1296 81.0093 54.9945 80.9907 54.8613ZM53.5016 23.7818C55.4644 23.7837 57.3462 24.4414 58.7342 25.6105C60.1221 26.7796 60.9028 28.3648 60.9051 30.0182C60.9086 30.9926 60.6385 31.9539 60.1168 32.8236C59.5952 33.6933 58.8368 34.4468 57.9035 35.0225C57.7834 35.0976 57.6837 35.1932 57.6108 35.3032C57.5378 35.4132 57.4934 35.5349 57.4804 35.6604L57.1378 38.9273H54.5592V33.9507L57.4223 31.539L55.9268 30.2792L53.5016 32.3221L51.0764 30.2792L49.5809 31.539L52.4439 33.9507V38.9273H49.8654L49.5227 35.6604C49.5098 35.5349 49.4653 35.4132 49.3924 35.3032C49.3195 35.1932 49.2197 35.0976 49.0997 35.0225C48.1664 34.4468 47.408 33.6933 46.8863 32.8236C46.3647 31.9539 46.0946 30.9926 46.0981 30.0182C46.1003 28.3648 46.8811 26.7796 48.269 25.6105C49.6569 24.4414 51.5388 23.7837 53.5016 23.7818ZM50.2398 42.491L50.0526 40.7092H56.9506L56.7633 42.491H50.2398ZM56.3625 44.2728C56.1749 44.7887 55.7958 45.2403 55.2808 45.5612C54.7658 45.882 54.1421 46.0552 53.5016 46.0552C52.861 46.0552 52.2374 45.882 51.7224 45.5612C51.2074 45.2403 50.8282 44.7887 50.6407 44.2728H56.3625ZM71.4815 67.9586L69.0563 65.9157C68.858 65.7487 68.589 65.6549 68.3085 65.6549C68.0281 65.6549 67.7591 65.7487 67.5608 65.9157L65.1356 67.9586V59.4183H71.4815V67.9586ZM77.8114 62.982H73.5967V58.5274C73.5967 58.2911 73.4853 58.0645 73.287 57.8974C73.0886 57.7304 72.8196 57.6365 72.5391 57.6365H58.7898V59.4183H63.0203V62.982H57.7321C57.0725 62.9822 56.4222 62.8512 55.834 62.5996C55.2459 62.348 54.7366 61.983 54.3477 61.5342C54.2448 61.4291 54.1156 61.3445 53.9693 61.2864C53.823 61.2283 53.6633 61.1982 53.5016 61.1982C53.3399 61.1982 53.1801 61.2283 53.0339 61.2864C52.8876 61.3445 52.7584 61.4291 52.6555 61.5342C52.2665 61.983 51.7573 62.348 51.1691 62.5996C50.581 62.8512 49.9306 62.9822 49.271 62.982H29.1917C29.5679 62.4229 29.8526 61.8235 30.0378 61.2001H48.2134V59.4183H30.3086C30.3122 58.1687 29.9271 56.94 29.1917 55.8547H49.271C49.9306 55.8544 50.581 55.9854 51.1691 56.237C51.7573 56.4886 52.2665 56.8536 52.6555 57.3024C52.7584 57.4075 52.8876 57.4921 53.0339 57.5502C53.1801 57.6083 53.3399 57.6384 53.5016 57.6384C53.6633 57.6384 53.823 57.6083 53.9693 57.5502C54.1156 57.4921 54.2448 57.4075 54.3477 57.3024C54.7366 56.8536 55.2459 56.4886 55.834 56.237C56.4222 55.9854 57.0725 55.8544 57.7321 55.8547H77.8114C77.079 56.941 76.694 58.169 76.694 59.4183C76.694 60.6677 77.079 61.8956 77.8114 62.982ZM57.7321 54.0728C56.1673 54.0695 54.6579 54.5603 53.5016 55.4484C52.3453 54.5603 50.8358 54.0695 49.271 54.0728H28.2473L31.1769 32.6909H44.5254C45.1022 34.0653 46.116 35.2798 47.4561 36.202L48.2134 43.4603C48.2242 43.5061 48.2394 43.5511 48.2589 43.5948H48.2409L48.5296 44.565C48.8061 45.4986 49.4453 46.3275 50.3455 46.9198C51.2457 47.5121 52.3551 47.8338 53.4974 47.8338C54.6396 47.8338 55.7491 47.5121 56.6492 46.9198C57.5494 46.3275 58.1886 45.4986 58.4651 44.565L58.7538 43.5948H58.7358C58.7582 43.5513 58.7762 43.5063 58.7898 43.4603L59.5513 36.202C60.8899 35.2794 61.9022 34.0649 62.4778 32.6909H75.8263L78.7559 54.0728H57.7321Z" fill="black"/>
<path d="M33.091 44H42.9091C43.1984 44 43.4759 43.9042 43.6805 43.7337C43.8851 43.5632 44 43.332 44 43.0909V34.9091C44 34.668 43.8851 34.4368 43.6805 34.2663C43.4759 34.0958 43.1984 34 42.9091 34H34.1819C33.9133 34 33.6542 34.0825 33.4541 34.2318C33.254 34.3811 33.1271 34.5866 33.0975 34.8091L32.0066 42.9909C31.9897 43.118 32.0052 43.2465 32.052 43.3683C32.0988 43.49 32.1759 43.6021 32.2782 43.6974C32.3806 43.7926 32.5058 43.8688 32.6459 43.9209C32.7859 43.9731 32.9376 44 33.091 44ZM35.1637 35.8182H41.8182V42.1818H34.3095L35.1637 35.8182Z" fill="black"/>
<path d="M32 45H38V47H32V45Z" fill="black"/>
<path d="M41 45H42V47H41V45Z" fill="black"/>
<path d="M32 49H41V50H32V49Z" fill="black"/>
<path d="M43 49H48V50H43V49Z" fill="black"/>
<path d="M63 34H73V36H63V34Z" fill="black"/>
<path d="M62 39H65V41H62V39Z" fill="black"/>
<path d="M66 39H75V41H66V39Z" fill="black"/>
<path d="M61 42H66V44H61V42Z" fill="black"/>
<path d="M69 42H75V44H69V42Z" fill="black"/>
<path d="M73 45H76V47H73V45Z" fill="black"/>
<path d="M60 45H72V47H60V45Z" fill="black"/>
<path d="M57 49H69V50H57V49Z" fill="black"/>
<path d="M71 49H75V50H71V49Z" fill="black"/>
</svg>
