<svg width="105" height="109" viewBox="0 0 105 109" fill="none" xmlns="http://www.w3.org/2000/svg">
<path fill-rule="evenodd" clip-rule="evenodd" d="M5.9186 44.2835C4.19811 27.1617 44.5674 7.16994 66.7299 17.8908C88.8923 28.6117 97.824 75.6997 85.5515 82.7853C73.279 89.8708 58.0049 63.4154 48.4589 58.5676C38.9129 53.7198 7.63909 61.4054 5.9186 44.2835Z" fill="#758184"/>
<path d="M74.4516 14H56.7097C54.7527 14 53.1613 15.6204 53.1613 17.6129V30.2581C53.1613 32.2506 54.7527 33.871 56.7097 33.871H58.8227L56.8037 37.9834C56.6334 38.3311 56.6999 38.7511 56.9705 39.0257C57.1399 39.1991 57.367 39.2903 57.5968 39.2903C57.7307 39.2903 57.8673 39.2587 57.9933 39.1955L68.4513 33.871H74.4516C76.4085 33.871 78 32.2506 78 30.2581V17.6129C78 15.6204 76.4085 14 74.4516 14V14ZM76.2258 30.2581C76.2258 31.2543 75.4301 32.0645 74.4516 32.0645H68.2419C68.1044 32.0645 67.9678 32.097 67.8454 32.1594L59.5803 36.3675L61.052 33.3715C61.1895 33.0915 61.1744 32.7591 61.013 32.4926C60.8506 32.2271 60.5659 32.0645 60.2581 32.0645H56.7097C55.7312 32.0645 54.9355 31.2543 54.9355 30.2581V17.6129C54.9355 16.6166 55.7312 15.8065 56.7097 15.8065H74.4516C75.4301 15.8065 76.2258 16.6166 76.2258 17.6129V30.2581Z" fill="black"/>
<path d="M74.9679 52.9651L70.0161 51.2851V50.5002C72.6135 49.4254 74.4516 46.8322 74.4516 43.8064C74.4516 39.8223 71.2678 36.5806 67.3548 36.5806C63.4419 36.5806 60.2581 39.8223 60.2581 43.8064C60.2581 46.8322 62.0961 49.4254 64.6935 50.5002V51.2851L59.7418 52.9651C58.169 53.499 57.0477 54.8646 56.7753 56.4868L46.0645 53.078V50.7134C48.2202 49.439 49.8081 47.273 50.3208 44.7097H51.3871C52.8544 44.7097 54.0484 43.4939 54.0484 42C54.0484 40.5061 52.8544 39.2903 51.3871 39.2903H50.5727L51.4421 37.2391C52.3531 35.0876 52.1908 32.6046 51.0065 30.5959C50.256 29.3223 49.1587 28.3242 47.8316 27.7101L45.3557 26.5621C42.4336 25.2072 38.8489 25.6028 36.2798 27.5646L34.8809 28.6322L34.8827 28.635C33.4988 29.0026 32.2773 29.9094 31.5268 31.183C30.5492 32.8413 30.4729 34.8645 31.3227 36.5933L32.6472 39.2903H31.871C30.4037 39.2903 29.2097 40.5061 29.2097 42C29.2097 43.4939 30.4037 44.7097 31.871 44.7097H32.9373C33.4509 47.273 35.0379 49.439 37.1935 50.7134V53.078L26.1128 56.6042C24.2508 57.1959 23 58.9273 23 60.9135V69.0968C23 69.5962 23.3974 70 23.8871 70H59.371H77.1129C77.6026 70 78 69.5962 78 69.0968V57.2491C78 55.3027 76.7811 53.5802 74.9679 52.9651V52.9651ZM67.3548 38.3871C69.4679 38.3871 71.2918 39.6498 72.1505 41.4707L68.5223 40.2396C68.3298 40.1755 68.1213 40.1791 67.9306 40.2504L62.2115 42.4335C62.8111 40.1095 64.886 38.3871 67.3548 38.3871V38.3871ZM62.0686 44.4188L68.2597 42.0551L72.665 43.5499C72.6685 43.6357 72.6774 43.7197 72.6774 43.8064C72.6774 46.7952 70.2902 49.2258 67.3548 49.2258C64.6235 49.2258 62.3685 47.1195 62.0686 44.4188ZM67.3548 51.0322C67.6556 51.0322 67.951 51.007 68.2419 50.9699V51.5615L67.3548 52.4648L66.4677 51.5615V50.9699C66.7587 51.007 67.0541 51.0322 67.3548 51.0322ZM52.2742 42C52.2742 42.4977 51.8759 42.9032 51.3871 42.9032H50.5V41.0968H51.3871C51.8759 41.0968 52.2742 41.5023 52.2742 42ZM33.0481 32.1124C33.7223 30.968 34.9554 30.2581 36.2648 30.2581C37.6557 30.2581 38.9465 30.9617 39.7191 32.1395L39.9977 32.5649L41.4738 31.5632L41.1952 31.1378C40.3951 29.9166 39.2019 29.0586 37.8491 28.6774C39.8575 27.4093 42.4594 27.2033 44.6203 28.205L47.0962 29.353C48.0942 29.8155 48.9201 30.5661 49.4852 31.5244C50.3758 33.0355 50.4982 34.9042 49.8125 36.5228L49.5499 37.1424L48.6318 35.2728C48.5138 35.0334 48.2982 34.8591 48.0419 34.7977C47.7864 34.7353 47.5167 34.7931 47.3056 34.9539L45.8862 36.0378C44.6665 36.9708 43.154 37.4839 41.629 37.4839C40.1041 37.4839 38.5916 36.9708 37.371 36.0387L35.9516 34.9548C35.7405 34.7931 35.4699 34.7353 35.2153 34.7986C34.959 34.86 34.7434 35.0343 34.6254 35.2737L33.6416 37.277L32.9098 35.7867C32.3331 34.6116 32.3855 33.2387 33.0481 32.1124V32.1124ZM31.871 42.9032C31.3822 42.9032 30.9839 42.4977 30.9839 42C30.9839 41.5023 31.3822 41.0968 31.871 41.0968H32.7581V42.9032H31.871ZM34.5323 42.9032V39.5035L35.7369 37.0494L36.3065 37.4839C37.8323 38.649 39.7227 39.2903 41.629 39.2903C43.5354 39.2903 45.4258 38.649 46.9516 37.4839L47.5211 37.0494L48.7258 39.5035V42.9032C48.7258 46.8873 45.542 50.129 41.629 50.129C37.716 50.129 34.5323 46.8873 34.5323 42.9032V42.9032ZM41.629 51.9355C42.556 51.9355 43.4494 51.7882 44.2903 51.5191V53.368L41.629 56.0777L38.9677 53.368V51.5191C39.8087 51.7882 40.702 51.9355 41.629 51.9355ZM42.7104 68.1935H40.5468L39.8974 65.548L41.3425 61.871H41.9156L43.3606 65.548L42.7104 68.1935ZM43.311 58.1253L42.0415 60.0645H41.2165L39.9462 58.1253L40.2425 57.2211L41.0019 57.9943C41.1748 58.1695 41.4019 58.2581 41.629 58.2581C41.8561 58.2581 42.0832 58.1695 42.2562 57.9934L43.0156 57.2202L43.311 58.1253ZM24.7742 60.9135C24.7742 59.7222 25.5247 58.6826 26.6415 58.3276L37.8323 54.7662L38.8391 55.7913L38.125 57.9717C38.0381 58.2364 38.0762 58.5263 38.2288 58.7584L39.744 61.0725L38.1427 65.1479C38.0735 65.324 38.0611 65.5182 38.1055 65.7015L38.7185 68.1935H24.7742V60.9135ZM58.4839 68.1935H44.5396L45.1508 65.7024C45.196 65.5191 45.1827 65.3249 45.1135 65.1488L43.5123 61.0734L45.0275 58.7593C45.1792 58.5272 45.2173 58.2373 45.1313 57.9726L44.4172 55.7922L45.424 54.7671L56.6156 58.3285C57.7334 58.6835 58.4839 59.7222 58.4839 60.9135V68.1935ZM76.2258 68.1935H60.2581V60.9135C60.2581 59.4548 59.5794 58.1379 58.4839 57.3051V57.2491C58.4839 56.0813 59.2148 55.048 60.3033 54.6777L65.3411 52.9679L66.7277 54.3796C66.9006 54.5566 67.1277 54.6451 67.3548 54.6451C67.5819 54.6451 67.809 54.5566 67.982 54.3805L69.3685 52.9688L74.4055 54.6777C75.4948 55.048 76.2258 56.0813 76.2258 57.2491V68.1935Z" fill="black"/>
<path d="M58.9274 25.7419C58.1938 25.7419 57.5968 26.3498 57.5968 27.0968C57.5968 27.8437 58.1938 28.4516 58.9274 28.4516C59.661 28.4516 60.2581 27.8437 60.2581 27.0968C60.2581 26.3498 59.661 25.7419 58.9274 25.7419Z" fill="black"/>
<path d="M63.3629 25.7419C62.6293 25.7419 62.0323 26.3498 62.0323 27.0968C62.0323 27.8437 62.6293 28.4516 63.3629 28.4516C64.0965 28.4516 64.6935 27.8437 64.6935 27.0968C64.6935 26.3498 64.0965 25.7419 63.3629 25.7419Z" fill="black"/>
<path d="M67.7984 25.7419C67.0648 25.7419 66.4677 26.3498 66.4677 27.0968C66.4677 27.8437 67.0648 28.4516 67.7984 28.4516C68.532 28.4516 69.129 27.8437 69.129 27.0968C69.129 26.3498 68.532 25.7419 67.7984 25.7419Z" fill="black"/>
<path d="M72.2339 25.7419C71.5002 25.7419 70.9032 26.3498 70.9032 27.0968C70.9032 27.8437 71.5002 28.4516 72.2339 28.4516C72.9675 28.4516 73.5645 27.8437 73.5645 27.0968C73.5645 26.3498 72.9675 25.7419 72.2339 25.7419Z" fill="black"/>
<path d="M73.5645 57.3548H70.0161C69.5264 57.3548 69.129 57.7586 69.129 58.2581V60.0645C69.129 61.5585 70.3231 62.7742 71.7903 62.7742C73.2576 62.7742 74.4516 61.5585 74.4516 60.0645V58.2581C74.4516 57.7586 74.0542 57.3548 73.5645 57.3548ZM72.6774 60.0645C72.6774 60.5631 72.2791 60.9677 71.7903 60.9677C71.3015 60.9677 70.9032 60.5631 70.9032 60.0645V59.1613H72.6774V60.0645Z" fill="black"/>
</svg>
