<svg width="199" height="231" viewBox="0 0 199 231" fill="none" xmlns="http://www.w3.org/2000/svg">
<path fill-rule="evenodd" clip-rule="evenodd" d="M183.41 43.8556C183.071 43.7779 183.213 44.1029 183.17 44.2796C181.363 44.9367 179.753 46.3003 177.882 46.7101C177.734 47.0563 177.536 47.0422 177.522 47.346C177.183 47.346 176.929 47.6427 176.533 47.4449C177.727 46.4769 179.273 45.5867 180.664 44.9155C181.575 44.4774 182.563 43.354 183.573 43.5659C183.806 43.679 183.382 43.9192 183.396 44.216C183.142 44.1665 183.361 43.9899 183.41 43.8556Z" fill="#B67A82"/>
<path fill-rule="evenodd" clip-rule="evenodd" d="M141.725 21.7476C144.465 22.8569 143.674 26.2978 141.457 27.2022C140.137 27.7392 138.499 26.8913 137.877 25.9304C136.635 24.0015 138.767 21.2813 140.539 21.359C140.871 21.3802 141.259 21.5569 141.725 21.7476ZM140.158 22.546C140.582 22.7721 140.991 22.97 141.281 22.7085C141.055 22.4118 140.44 22.3623 140.158 22.546ZM141.937 25.5135C142.029 25.5701 142.128 25.6195 142.22 25.6761C142.453 25.5135 142.523 25.1956 142.212 25.019C142.064 25.0543 141.895 25.3581 141.937 25.5135Z" fill="#B67A82"/>
<path fill-rule="evenodd" clip-rule="evenodd" d="M93.9752 4.44419C93.7422 4.75508 93.8622 4.07679 93.5586 4.02026C93.1208 4.26756 93.3397 4.82573 93.6221 4.89639C92.8172 5.53935 91.4899 6.36601 90.1907 5.8573C88.3268 5.12248 88.002 3.1512 88.8775 1.56853C89.527 0.975025 89.993 0.28967 90.8474 0.0635734C91.8994 -0.219047 93.961 0.487504 94.3776 1.58972C94.6459 2.29628 94.2576 2.88271 94.3494 3.63166C94.074 4.04146 93.961 4.04146 93.9752 4.44419ZM91.6452 1.44841C91.8147 1.7593 92.4713 1.97833 92.6548 1.64625C92.2736 1.41309 91.9135 1.25058 91.6452 1.44841Z" fill="#B67A82"/>
<path fill-rule="evenodd" clip-rule="evenodd" d="M173.356 49.1124C173.314 49.713 172.269 49.7554 172.085 50.5396C170.214 51.4652 168.534 53.0691 166.451 53.2457C166.331 52.5957 167.15 52.2071 167.567 52.1011C167.694 51.9457 167.524 51.875 167.694 51.7054C169.544 50.794 171.471 49.176 173.356 49.1124Z" fill="#B67A82"/>
<path fill-rule="evenodd" clip-rule="evenodd" d="M95.8814 18.9638C96.6087 19.3383 96.6581 19.522 96.9476 20.2215C97.3924 21.2813 97.5124 23.3727 96.3474 24.27C95.7544 24.7293 94.1163 25.238 93.2832 25.0684C90.7838 24.5526 90.4943 21.7335 91.2992 20.3062C92.21 18.6812 94.2434 18.1301 95.8814 18.9638ZM93.8056 20.3204C93.9257 20.1084 94.2716 20.716 94.3493 20.3486C94.1657 20.1791 93.7068 20.1437 93.8056 20.3204ZM95.133 22.2846C95.3801 22.2069 95.3378 21.8748 95.0483 21.7688C94.9 21.9878 94.9424 22.1574 95.133 22.2846Z" fill="#B67A82"/>
<path fill-rule="evenodd" clip-rule="evenodd" d="M106.296 36.6064C105.985 37.8712 105.124 39.5315 103.909 39.1853C103.937 38.4647 104.015 37.7228 104.015 37.0021C104.248 36.6206 104.587 36.7124 104.636 36.232C105.117 36.0906 105.851 36.2178 106.296 36.6064ZM105.462 37.9135C105.59 37.7369 105.611 37.5956 105.406 37.5108C105.286 37.6874 105.265 37.8288 105.462 37.9135Z" fill="#B67A82"/>
<path fill-rule="evenodd" clip-rule="evenodd" d="M151.857 64.918C151.681 65.2147 151.426 65.2359 151.151 65.1723C151.384 65.0805 151.568 64.7908 151.857 64.918Z" fill="#B67A82"/>
<path fill-rule="evenodd" clip-rule="evenodd" d="M123.77 53.4718C124.137 54.3479 124.731 55.0121 124.851 55.8599C125.246 58.6296 122.471 61.0248 120.868 62.77C119.944 62.883 119.089 63.1233 118.023 62.1906C118.03 61.0531 117.282 60.1275 116.201 59.2938C115.693 58.0432 115.531 56.6937 115.785 55.2311C117.508 52.6734 120.191 50.688 123.77 53.4718ZM119.824 54.5104C120.318 54.8566 120.713 54.8566 121.052 54.6447C120.939 54.2773 120.092 54.0936 119.824 54.5104ZM121.44 58.6013C121.56 58.6649 121.673 58.7356 121.793 58.7992C121.991 58.6437 121.977 58.5095 122.005 58.2622C121.913 58.2057 121.815 58.1562 121.723 58.0997C121.567 58.1421 121.398 58.4459 121.44 58.6013Z" fill="#B67A82"/>
<path fill-rule="evenodd" clip-rule="evenodd" d="M178.383 103.503C178.108 104.372 177.021 104.188 176.216 103.87C176.802 103.248 177.578 103.326 178.383 103.503Z" fill="#B67A82"/>
<path fill-rule="evenodd" clip-rule="evenodd" d="M78.0397 61.5831C77.6726 61.2863 77.729 60.8765 77.0654 60.6575C76.0416 58.8558 78.0962 56.3899 80.1084 58.0786C80.4968 58.7427 80.638 59.4846 80.4332 60.3183C79.713 61.0178 78.9505 61.576 78.0397 61.5831ZM79.48 59.6895C79.5224 59.6189 79.5577 59.5482 79.6001 59.4775C79.4871 59.4281 79.353 59.308 79.2753 59.3857C79.3741 59.4846 79.2117 59.6471 79.48 59.6895Z" fill="#B67A82"/>
<path fill-rule="evenodd" clip-rule="evenodd" d="M19.833 49.5928C18.202 49.7977 16.9735 50.8788 15.1378 50.9635C13.3727 51.0483 11.191 50.1298 9.58823 49.0488C7.97137 47.9536 6.93348 46.3427 5.96619 45.0426C5.86029 43.8132 5.17542 42.7181 5.42254 41.3686C5.88853 38.7967 8.3244 36.4015 10.0401 34.8188C11.3322 34.1618 12.6242 33.8438 14.114 33.3775C15.7662 32.8617 17.03 32.7981 18.9928 33.328C20.1931 33.653 21.8311 34.3313 23.2926 35.4689C25.1849 36.9526 25.5167 39.5527 24.9024 41.8914C24.5494 43.2409 24.1328 43.9404 23.5398 45.1416C22.756 46.7525 21.4287 48.5966 19.833 49.5928ZM18.5409 37.4684C18.4703 38.1396 19.8612 38.5636 20.1578 37.9135C19.9248 37.3907 18.8869 37.0586 18.5409 37.4684ZM21.4357 44.4279C21.1957 44.8519 21.6546 45.4524 22.0429 45.3323C22.283 44.8731 21.9158 44.5127 21.4357 44.4279Z" fill="#B67A82"/>
<path fill-rule="evenodd" clip-rule="evenodd" d="M180.869 134.238C180.784 134.005 180.657 133.778 180.72 133.503C181.54 131.857 182.719 131.185 184.131 130.754C184.872 131.355 186.023 131.729 186.658 131.242C186.87 130.846 186.623 130.571 186.672 130.225C188.423 130.26 190.471 130.627 191.904 131.871C192.533 132.415 192.985 133.263 193.472 134.061C193.945 134.838 194.714 135.587 194.926 136.287C195.336 137.636 194.072 138.986 193.592 140.484C192.017 141.339 190.069 143.31 187.993 143.303C187.527 143.303 186.87 143.084 186.298 142.999C185.162 142.829 184.314 142.851 182.966 141.96C182.422 141.6 181.554 141.049 181.109 140.448C180.622 139.777 179.64 137.891 179.598 137.17C179.563 136.626 179.894 136.061 179.753 135.573C179.894 135.071 180.198 135.015 180.057 134.534C180.29 134.287 180.6 134.323 180.869 134.238ZM189.207 136.506C189.243 136.965 190.513 137.714 190.753 136.908C190.386 136.513 189.525 136.039 189.207 136.506Z" fill="#B67A82"/>
<path fill-rule="evenodd" clip-rule="evenodd" d="M185.641 130.571C185.387 130.832 184.949 130.973 184.695 130.599C184.957 130.373 185.38 130.189 185.641 130.571Z" fill="#B67A82"/>
<path fill-rule="evenodd" clip-rule="evenodd" d="M155.317 142.151C155.288 143.691 156.326 144.815 155.521 146.094C155.232 146.553 154.646 147.076 154.067 147.514C153.545 147.91 152.923 148.454 152.443 148.743C151.045 149.591 148.51 149.542 147.183 149.139C146.456 148.92 145.227 148.432 144.592 147.768C144.359 147.521 144.069 146.899 143.745 146.454C143.081 145.528 142.347 144.356 142.749 143.091C142.996 142.307 143.716 142.024 143.639 141.353C146.131 136.513 152.507 138.103 155.317 142.151ZM148.489 139.699C148.87 140.166 149.647 140.307 150.007 139.996C149.788 139.48 148.8 139.205 148.489 139.699ZM152.034 143.847C152.09 144.193 152.958 144.681 153.142 144.193C153.177 143.79 152.267 143.331 152.034 143.847Z" fill="#B67A82"/>
<path fill-rule="evenodd" clip-rule="evenodd" d="M34.4623 87.9232C33.9186 90.5304 32.7536 92.4028 30.7979 93.611C30.1342 93.7311 29.4846 93.8936 28.9056 94.3175C27.5571 94.155 26.032 94.1904 24.6552 93.4131C23.7727 92.9186 22.8477 91.6821 22.5653 90.8342C22.4806 90.5728 22.6571 90.1983 22.5794 89.8168C22.523 89.513 22.2547 89.2304 22.2194 88.9619C22.1276 88.1423 22.4594 86.8846 22.7913 86.2911C23.3137 85.3514 24.1681 84.7508 24.6623 83.797C25.5872 83.2105 26.5757 82.7937 27.6418 82.4898C27.9172 82.4121 28.2349 82.2214 28.4538 82.2002C29.5411 82.1224 30.7555 82.829 31.6804 83.2671C33.7633 84.2633 34.1022 86.3476 34.4623 87.9232ZM29.1598 84.7437C29.5128 85.1606 30.2895 85.415 30.6002 84.9981C30.459 84.6166 29.4634 84.2986 29.1598 84.7437ZM32.0123 89.619C32.2311 89.7603 32.443 90.0782 32.7183 90.0217C32.916 89.6402 32.2382 89.089 32.0123 89.619Z" fill="#B67A82"/>
<path fill-rule="evenodd" clip-rule="evenodd" d="M14.1352 94.0138C13.994 93.0528 13.8034 92.749 14.1705 91.7952C14.5518 90.7989 16.1404 90.1277 16.8676 90.3255C21.0545 91.4843 17.0653 97.5677 14.1352 94.0138ZM16.3028 91.4984C16.564 91.5903 16.8464 91.7387 17.0582 91.6468C16.7899 91.5338 16.5005 91.3571 16.3028 91.4984ZM17.6584 92.7349C17.5242 92.9398 17.7714 93.1306 17.9337 93.074C18.1032 92.7985 17.8561 92.7844 17.6584 92.7349Z" fill="#B67A82"/>
<path fill-rule="evenodd" clip-rule="evenodd" d="M103.09 144.737C103.161 144.857 103.253 144.97 103.14 145.14C103.104 144.991 102.829 144.907 102.794 144.758C102.871 144.666 103.02 144.85 103.09 144.737Z" fill="#B67A82"/>
<path fill-rule="evenodd" clip-rule="evenodd" d="M104.029 146.383C105.907 147.351 106.896 148.92 108.047 150.517C108.823 151.584 109.529 152.241 109.508 153.392C108.965 153.421 108.463 152.735 107.92 152.403C107.334 151.004 105.985 150.213 105.173 148.991C104.651 148.206 104.573 147.132 104.029 146.383Z" fill="#B67A82"/>
<path fill-rule="evenodd" clip-rule="evenodd" d="M9.5104 94.7697C10.4989 96.5078 11.5226 98.1117 10.4494 100.062C10.0964 100.705 9.42567 101.581 8.93144 102.097C7.61819 103.467 4.94932 103.34 3.57959 102.16C3.36071 101.969 3.34659 101.609 3.1842 101.376C2.90884 100.987 2.20985 100.571 2.01922 99.9699C1.97685 99.8428 2.10394 99.6167 2.08982 99.3552C2.06158 98.8465 1.90625 97.6666 2.12512 97.1367C2.83823 95.3986 4.58218 94.1833 6.02958 94.0137C7.51934 93.8371 8.23951 93.9925 9.5104 94.7697ZM7.21574 95.5328C7.49816 95.8437 8.23951 96.1192 8.51487 95.7094C8.03476 95.4551 7.58289 95.335 7.21574 95.5328ZM9.70103 99.0797C9.94815 99.1786 10.2588 99.5177 10.4212 99.2987C10.4636 99.002 9.83518 98.7193 9.70103 99.0797Z" fill="#B67A82"/>
<path fill-rule="evenodd" clip-rule="evenodd" d="M102.052 150.22C101.897 150.312 101.777 150.503 101.629 150.637C99.7084 150.227 100.21 148.651 99.2212 147.782C100.478 147.267 101.756 149.224 102.052 150.22Z" fill="#B67A82"/>
<path fill-rule="evenodd" clip-rule="evenodd" d="M116.887 158.027C116.766 158.239 116.59 158.253 116.406 158.225C116.237 158.07 116.237 157.872 116.364 157.639C116.505 157.603 116.766 157.872 116.887 158.027Z" fill="#B67A82"/>
<path fill-rule="evenodd" clip-rule="evenodd" d="M111.436 155.604C111.111 155.724 110.412 155.152 110.716 154.728C111.04 154.784 111.528 155.244 111.436 155.604Z" fill="#B67A82"/>
<path fill-rule="evenodd" clip-rule="evenodd" d="M130.188 171.035C129.984 171.296 129.398 171.084 129.221 170.766C129.447 170.088 130.118 170.71 130.188 171.035Z" fill="#B67A82"/>
<path fill-rule="evenodd" clip-rule="evenodd" d="M94.0033 153.251C94.1799 153.357 94.0245 153.611 93.8763 153.647C93.8198 153.505 93.5938 153.406 93.7492 153.202C93.848 153.265 93.9469 153.322 94.0033 153.251Z" fill="#B67A82"/>
<path fill-rule="evenodd" clip-rule="evenodd" d="M142.142 181.796C142.022 182.008 141.902 182.22 141.782 182.432C140.744 182.566 139.409 181.096 138.223 179.959C137.771 179.521 137.376 178.984 137.348 178.531C138.216 178.122 138.922 179.132 139.551 179.591C140.581 180.326 141.732 180.821 142.142 181.796Z" fill="#B67A82"/>
<path fill-rule="evenodd" clip-rule="evenodd" d="M70.7321 152.643C70.9227 152.806 70.8874 153.039 70.958 153.237C70.8309 153.364 70.6685 153.343 70.5768 153.583C70.2449 153.392 70.4144 152.82 70.7321 152.643Z" fill="#B67A82"/>
<path fill-rule="evenodd" clip-rule="evenodd" d="M123.001 186.784C122.923 187.088 123.093 187.314 123.22 187.561C122.669 187.554 122.033 186.593 121.688 186.134C122.048 185.957 122.358 186.558 123.001 186.784Z" fill="#B67A82"/>
<path fill-rule="evenodd" clip-rule="evenodd" d="M125.648 189.865C124.801 190.387 124.039 189.08 123.897 188.501C124.752 188.798 125.67 188.946 125.648 189.865Z" fill="#B67A82"/>
<path fill-rule="evenodd" clip-rule="evenodd" d="M134.347 198.131C134.072 198.046 134.093 197.884 134.001 197.75C134.163 197.531 134.658 197.87 134.347 198.131Z" fill="#B67A82"/>
<path fill-rule="evenodd" clip-rule="evenodd" d="M133.789 199.777C133.253 200.117 132.836 199.269 132.998 198.866C133.422 198.908 133.584 199.488 133.789 199.777Z" fill="#B67A82"/>
<path fill-rule="evenodd" clip-rule="evenodd" d="M8.52201 136.81C8.36668 137.099 8.81149 136.873 8.98095 137.163C8.64204 138.816 6.60156 139.007 5.32361 139.678C4.20805 140.265 3.22665 141.077 2.23818 141.021C1.89221 141.529 1.15792 142.384 0.254178 142.052C0.056484 141.847 0.218875 141.543 0 141.346C0.501295 140.724 1.12968 140.554 1.82161 140.597C3.69264 138.477 5.83197 136.951 8.52201 136.81Z" fill="#B67A82"/>
<path fill-rule="evenodd" clip-rule="evenodd" d="M155.719 230.456C153.792 232.138 152.719 229.559 151.391 228.202C150.636 227.425 149.619 226.831 148.652 226.097C147.36 225.114 145.291 223.341 144.542 222.288C143.9 221.377 142.784 219.314 143.731 218.091C144.613 216.954 147.557 217.95 148.666 218.445C151.292 219.617 151.885 221.638 152.598 223.56C152.952 224.507 153.523 225.256 153.855 226.139C155.479 227.255 156.355 228.845 155.719 230.456ZM149.548 222.02C149.605 221.928 149.654 221.829 149.711 221.737C149.647 221.532 149.555 221.341 149.266 221.207C148.814 221.433 149.068 222.069 149.548 222.02Z" fill="#B67A82"/>
<path fill-rule="evenodd" clip-rule="evenodd" d="M178.051 39.6163C177.656 39.9837 177.176 40.7115 176.724 39.9908C176.759 40.0544 177.134 39.5669 177.487 39.2984C177.677 39.4044 177.861 39.5103 178.051 39.6163Z" fill="#B67A82"/>
<path fill-rule="evenodd" clip-rule="evenodd" d="M143.166 30.1273C142.975 29.661 143.766 28.8061 144.098 28.9686C144.571 29.2088 143.886 30.4877 143.166 30.1273Z" fill="#B67A82"/>
<path fill-rule="evenodd" clip-rule="evenodd" d="M135.837 28.8909C135.943 28.8132 135.922 28.9474 135.837 28.8909C135.816 29.0181 136.282 29.0675 136.444 29.1382C136.536 29.2159 136.515 29.3077 136.606 29.5126C137.934 30.0991 138.35 31.2932 138.873 32.2823C138.922 32.5508 138.767 32.9747 139.127 32.9889C139.056 34.5433 139.565 35.9352 139.268 37.5532C138.463 39.1288 137.482 40.9941 135.561 41.8137C135.328 41.9126 135.004 41.8844 134.714 41.9903C133.719 42.3507 132.059 43.0078 130.986 42.9725C130.421 42.9513 129.737 42.5909 129.115 42.4779C127.604 42.2094 124.695 40.556 124.018 38.7614C123.82 38.2386 123.693 37.4331 123.53 36.8043C123.262 35.7515 122.888 34.4444 123.417 33.1938C124.046 31.6959 125.218 30.7915 126.157 29.3219C127.181 28.6012 128.303 28.361 129.475 27.7392C130.4 27.8593 130.817 27.3011 131.721 27.2305C133.224 27.9088 134.848 27.5484 135.837 28.8909Z" fill="#B67A82"/>
<path fill-rule="evenodd" clip-rule="evenodd" d="M107.221 46.5617C107.122 47.0916 106.218 47.8688 106.317 48.6672C106.246 48.6248 106.176 48.5895 106.105 48.5471C105.9 49.0558 105.039 50.0591 104.884 51.2179C106.289 51.557 107.842 52.1011 109.325 52.7864C109.501 52.8995 109.268 53.1185 109.445 53.2316C109.791 53.3305 110.172 53.5707 110.426 53.3163C110.864 53.8675 110.659 54.4539 110.991 55.1322C110.144 56.6725 110.708 58.46 109.282 59.4916C109.092 60.4031 109.84 61.046 110.334 61.7667C110.624 61.5477 110.737 61.6819 111.104 61.7314C112.043 61.8515 112.947 61.3286 113.78 62.12C113.73 62.7135 115.248 63.2575 115.382 63.5825C115.375 63.5684 115.75 63.8652 115.771 63.8934C115.997 64.2184 115.961 64.5081 116.237 64.7201C116.604 64.9956 116.943 65.0804 117.416 65.1087C117.691 65.25 117.409 65.1794 117.366 65.3631C118.228 66.7055 119.188 67.6452 120.311 68.4224C120.162 68.6414 120.501 68.7262 120.395 68.9382C122.408 69.8285 122.867 73.2482 125.239 72.6052C125.31 72.5487 125.719 72.6617 125.634 72.7324C127.668 72.047 129.758 70.6339 132.144 70.6127C133.358 71.1285 133.436 71.9622 133.86 72.7041C133.761 72.9726 133.62 73.2482 133.937 73.3965C132.229 75.7918 129.292 75.1629 126.778 75.3396C126.651 75.7494 126.171 75.7635 125.973 76.1026C125.832 76.3429 126.065 76.3075 126.023 76.5054C125.98 76.7385 125.564 76.8445 125.776 77.113C125.994 77.4027 126.164 77.5016 126.171 77.8973C126.524 78.1163 126.792 78.3636 126.863 78.6604C128.875 79.8403 130.986 79.6495 132.554 78.5049C133.676 78.4696 134.587 77.65 135.448 76.682C137.002 75.8341 138.52 74.852 140.186 74.3999C141.182 74.5694 142.085 74.0042 143.017 73.8487C143.843 73.7074 144.726 73.8558 145.51 73.5732C146.625 73.1634 147.416 72.3155 148.644 71.9764C149.266 70.853 150.897 70.5562 151.44 69.1643C151.568 68.9735 151.779 69.0936 151.921 68.9735C151.984 68.5567 152.464 68.5072 152.394 68.3023C153.664 68.267 155.02 66.7479 156.383 66.3522C157.279 65.3701 158.346 64.9603 159.511 64.9391C160.09 65.3913 161.021 65.3631 161.452 66.1261C161.643 66.4582 161.367 67.0164 161.798 67.1648C161.473 67.2778 161.572 67.8431 161.389 68.055C160.916 68.6203 160.224 69.3904 159.511 69.892C158.889 70.3301 157.978 70.4856 157.237 70.9448C155.761 71.8633 154.116 72.8596 152.521 73.5167C152.154 73.6721 151.462 73.6368 151.405 74.0112C150.798 74.1667 149.958 74.4564 149.711 75.2053C149.428 75.0145 149.527 75.4102 149.442 75.5233C149.393 75.4738 149.414 75.4102 149.343 75.3749C149.23 75.6292 149.103 75.8765 149.125 76.0956C148.969 76.2793 149.075 75.926 148.955 75.9048C148.637 76.569 147.472 77.4804 146.795 78.4201C145.997 78.5897 144.846 80.0947 145.107 80.9213C145.418 81.0273 145.587 80.6387 145.912 80.8153C144.662 81.8964 145.022 83.5002 146.293 84.1149C147.232 84.5671 148.383 84.2774 149.188 84.4399C149.294 84.8286 150.035 85.0829 150.113 85.6128C150.127 86.602 149.252 87.6972 148.8 88.6086C148.644 88.7923 148.75 88.439 148.63 88.4178C146.717 90.9967 144.613 92.5936 141.881 93.1093C139.939 96.1758 136.571 102.238 140.172 104.76C141.866 105.947 145.164 106.23 146.858 105.82C147.91 106.082 148.786 105.742 149.802 105.891C153.198 105.368 156.291 103.75 159.722 103.361C160.358 103.708 160.901 103.729 161.389 103.552C161.466 103.609 161.523 103.609 161.572 103.559C161.735 103.616 161.735 103.715 161.819 103.792C163.274 104.605 164.615 103.905 165.936 103.778C167.086 103.665 168.28 103.856 169.423 103.877C170.122 103.891 170.829 103.672 171.492 104.018C171.626 104.082 171.669 103.807 171.796 103.814C171.824 104.061 171.845 103.941 172.114 104.082C171.753 105.092 170.603 104.923 169.84 105.135C167.538 105.771 165.025 106.393 162.631 106.675C161.304 107.551 159.878 108.081 158.55 108.95C154.533 109.381 150.417 109.459 146.442 110.06C145.608 110.717 144.274 111.19 143.511 111.953C142.269 113.204 143.787 114.553 144.606 115.648C144.422 116.185 144.888 116.475 145.1 116.765C144.14 117.288 143.399 117.436 142.721 117.012C141.93 116.524 140.807 115.182 139.826 115.846C138.993 116.411 138.619 117.98 138.767 118.891C138.943 119.994 139.96 121.174 140.8 121.908C141.132 122.198 140.913 122.615 141.407 122.813C141.535 123.901 143.257 124.939 144.38 125.985C144.789 126.367 146.216 126.847 146.844 126.911C147.564 127.25 148.44 127.822 149.294 128.197C149.322 128.211 149.605 128.183 149.654 128.211C150.127 128.486 150.466 129.087 150.868 129.363C151.059 129.497 151.751 129.666 152.132 130.26C154.01 130.853 156.531 132.662 158.31 133.369C158.381 133.489 158.233 133.461 158.218 133.694C159.108 134.089 159.751 133.609 160.548 133.701C161.262 132.987 162.285 131.729 163.401 131.291C164.926 130.691 168.11 130.705 170.059 131.404C170.899 131.701 171.951 132.372 172.784 133.037C173.85 133.884 174.013 135.502 174.098 136.675C174.147 137.332 174.302 137.898 174.006 138.491C173.526 139.466 172.911 139.904 172.445 140.597C172.036 141.204 171.499 142.243 170.694 142.879C170.454 143.07 169.974 143.253 169.607 143.479C167.764 144.631 164.806 145.21 162.61 144.299C160.4 143.38 160.379 142.377 159.807 140.66C159.468 139.65 159.03 138.555 159.2 137.424C156.905 136.011 154.851 134.224 152.499 133.086C151.772 132.733 150.445 132.266 150 131.397C148.652 130.91 147.938 130.189 146.59 129.659C146.498 129.582 146.519 129.49 146.427 129.285C144.528 128.31 142.544 127.511 141.626 126.204C141.563 126.346 141.45 126.232 141.224 126.254C140.158 125.349 138.774 124.982 138.004 125.837C137.785 125.844 137.517 125.667 137.376 125.95C137.489 126.494 137.228 127.306 137.447 127.483C137.023 127.412 137.27 127.956 136.776 127.85C136.564 128.105 136.973 128.19 136.818 128.437C136.599 128.366 136.38 128.289 136.267 128.592C136.331 129.214 136.966 129.673 137.319 130.21C137.284 130.62 137.263 131.023 137.63 131.32C137.538 131.56 137.277 131.369 137.362 131.631C137.447 131.956 137.588 131.525 137.792 131.687C137.609 132.902 137.609 133.468 137.461 134.768C137.03 134.902 136.903 134.937 136.627 135.418C135.342 135.467 134.425 135.51 133.161 135.608C132.412 136.463 131.551 137.219 130.986 138.307C129.673 140.858 132.885 142.045 134.036 143.67C133.895 143.472 134.185 143.988 134.199 144.045C134.34 144.483 134.036 144.878 134.319 145.324C133.803 145.896 133.514 146.772 132.716 146.85C131.403 146.977 129.539 145.062 129.503 144.101C128.854 143.614 128.395 142.61 127.491 142.031C126.256 141.24 124.074 141.36 123.488 142.017C123.107 142.441 123.234 143.063 123.001 143.706C122.245 143.691 122.535 144.963 123.227 144.956C122.81 146.249 123.82 147.139 123.53 148.397C123.587 148.609 123.777 148.567 123.954 148.637C123.594 148.877 124.187 149.316 123.792 149.761C123.883 149.796 123.912 149.845 123.89 149.909C124.229 150.488 124.399 150.877 125.091 151.428C126.27 152.368 126.736 153.802 127.654 154.834C127.647 156.211 129.708 156.741 131.184 157.851C131.332 157.957 131.353 158.169 131.487 158.303C132.172 158.974 133.104 159.285 133.634 159.794C134.347 160.472 134.559 161.391 134.827 162.147C134.559 162.048 134.276 161.885 134.1 162.111C133.902 162.507 134.495 162.676 134.862 162.917C134.502 164.838 132.956 165.418 131.396 165.262C126.383 163.263 125.232 159.815 122.965 156.869C123.036 156.692 122.796 156.6 122.951 156.395C122.055 155.611 122.048 154.579 121.151 153.788C120.537 151.492 118.983 149.457 117.903 147.288C117.105 146.419 115.354 146.058 114.994 144.991C113.801 144.398 113.462 142.879 112.142 142.264C110.539 141.515 108.619 141.091 106.804 140.469C105.208 139.918 102.377 139.812 101.72 141.713C101.664 141.868 101.791 141.989 101.77 142.116C101.735 142.384 101.374 142.589 101.735 142.844C101.304 143.091 100.548 142.851 99.9694 143.154C99.3128 143.882 99.0798 144.723 99.0586 145.444C98.8892 145.189 99.1575 144.815 98.7691 144.624C98.282 144.737 98.2325 145.663 98.8186 145.868C99.1857 145.938 98.7338 145.309 99.0869 145.55C98.9456 146.065 98.635 146.631 99.1292 146.97C99.0445 147.097 98.868 146.885 98.7974 147.062C98.8539 147.182 99.3905 147.21 99.6235 147.245C99.6376 147.613 98.642 147.387 98.642 147.161C97.9713 147.542 97.3005 147.917 96.651 148.376C96.185 150.234 93.968 151.407 93.036 152.968C92.3582 152.975 91.8569 153.59 91.3062 154.049C91.045 155.215 92.4641 155.173 93.3184 155.279C95.3589 155.533 98.2043 156.452 99.3481 158.494C99.6517 159.031 99.5811 159.702 99.7294 160.295C99.9624 161.207 100.577 161.708 101.149 162.592C101.318 162.634 101.494 162.521 101.544 162.719C99.6588 162.217 100.238 165.383 101.092 166.011C101.071 167.142 101.233 168.145 101.043 169.254C100.916 169.989 100.64 170.71 100.781 171.537C101.007 172.865 101.72 173.67 101.396 175.246C101.092 176.751 100.873 178.341 100.668 179.69C100.633 179.923 100.485 180.171 100.45 180.411C100.337 181.252 100.555 182.191 100.393 182.997C100.209 183.915 99.4893 184.77 99.5599 185.795C100.372 188.416 101.777 190.868 103.154 193.334C102.066 194.719 105.145 196.266 104.015 197.276C104.015 198.032 104.714 198.598 104.827 199.318C105.724 199.834 105.222 201.127 105.9 201.883C106.903 201.947 107.03 202.703 107.171 203.437C108.696 204.2 109.113 205.748 109.212 207.111C108.922 207.366 108.696 207.839 108.428 208.164C105.985 208.32 105.554 206.271 104.552 204.766C103.789 203.614 102.638 202.399 102.25 201.226C102.13 200.858 102.172 200.385 102.052 200.088C101.191 197.983 99.2139 196.93 98.522 194.923C97.0958 192.253 95.3589 189.674 94.9212 186.727C94.2575 185.519 93.7491 184.269 94.1728 182.757C94.2716 180.948 93.0078 179.45 92.683 177.62C92.1676 177.09 91.9134 176.482 91.8216 175.825C91.631 175.698 91.6027 175.529 91.405 175.401C91.3415 173.925 90.5013 172.667 89.7458 171.381C88.4891 170.632 87.4017 169.219 86.0532 167.99C85.2483 167.255 84.2104 166.69 83.462 165.969C82.996 165.524 82.177 164.464 81.4568 164.556C80.779 163.326 79.4022 164.104 78.4773 163.715C77.8348 163.447 77.4111 162.698 76.7616 162.281C75.9426 161.758 75.0247 161.751 74.1633 161.094C73.888 160.811 73.9939 160.423 73.5561 160.189C72.9136 158.324 75.6954 156.31 74.9823 154.177C76.1756 152.877 75.6884 151.153 74.008 150.269C74.1351 149.351 73.1748 148.22 72.3346 148.107C71.9534 147.994 72.4759 147.627 72.2217 147.486C71.9816 147.274 71.8616 147.478 71.7063 147.57C71.7204 147.146 71.2261 146.963 70.979 146.878C70.5342 146.482 70.4001 146.164 69.8211 145.945C70.0753 145.733 69.5104 145.755 69.7717 145.543C68.4514 144.914 67.9007 143.557 66.9334 142.632C66.9404 142.109 66.5521 141.699 66.1991 141.282C66.185 140.427 65.9449 139.643 65.4789 138.915C65.9802 138.505 65.3095 137.841 65.8319 137.622C65.6625 137.474 65.7119 137.255 65.4577 137.128C65.8461 136.152 65.7825 135.453 65.6625 134.443C65.9802 134.202 66.0437 133.715 65.9378 133.291C64.8011 132.57 64.6811 131.051 63.622 130.119C62.3158 129.476 61.3132 129.645 60.2824 130.571C59.9647 130.86 59.5622 131.419 59.3857 131.835C59.2233 132.21 59.3645 132.648 59.2515 133.065C58.9056 134.344 57.6206 135.029 57.3311 135.813C56.738 135.969 56.2155 136.386 55.6507 136.64C55.3753 137.368 55.2271 137.657 54.7258 138.449C54.3374 138.618 53.8997 138.632 53.5679 139.014C53.4549 139.282 53.7655 139.438 53.5326 139.742C52.9324 139.777 53.0948 139.028 52.9324 138.654C52.6924 138.095 52.2899 137.53 52.3676 136.838C52.657 136.181 52.7277 135.757 52.996 135.227C53.4478 135.213 53.8785 135.1 54.288 134.923C55.1212 133.347 54.7258 131.157 52.7418 132.365C52.2758 132.648 51.8027 133.058 51.2379 133.383C50.7366 133.672 50.0658 133.856 49.7058 134.111C49.4445 134.287 49.261 134.782 48.9362 134.98C48.8161 135.057 48.6255 134.973 48.5337 135.036C47.3476 135.806 45.6177 137.445 44.6081 135.714C42.6947 134.817 44.2056 133.072 45.3 131.998C45.999 131.32 46.7968 130.281 47.4464 129.843C47.6017 129.737 47.8912 129.765 48.1101 129.659C48.3713 129.532 48.5902 129.2 48.795 129.108C48.9432 129.037 49.2045 129.186 49.3386 129.136C49.8893 128.946 50.2353 128.543 50.6166 128.359C50.6166 128.267 50.4824 128.14 50.6236 128.176C49.8752 127.525 47.8559 126.981 46.7545 126.091C46.7262 125.922 46.698 125.745 46.8957 125.512C44.8976 124.035 41.6639 122.403 39.3974 122.587C39.2068 122.912 38.6137 122.898 38.6349 123.279C36.6721 123.625 35.3235 124.89 33.3678 125.166C32.4852 125.71 31.6238 126.331 30.6142 126.416C29.9717 126.96 29.3574 127.624 28.6161 127.808C28.5172 128.105 28.3407 128.098 28.2277 128.338C28.0583 128.161 28.0371 128.112 27.8324 128.211C27.7971 128.317 27.9736 128.366 28.0795 128.444C27.9312 129.815 26.4485 131.002 25.2623 131.623C24.5845 131.977 23.822 132.57 23.3066 132.111C22.3958 131.298 24.2244 130.401 24.2315 129.645C25.0717 128.359 26.512 128.013 27.79 127.639C29.2374 125.625 31.2779 125.738 32.81 124.028C34.1374 123.696 34.8999 122.643 36.0578 121.746C36.5591 120.82 37.0957 120.728 37.5617 120.071C37.5264 119.541 37.484 119.019 37.0887 118.588C35.0905 117.733 33.2901 117.245 32.4429 115.408C32.2875 115.076 32.0616 114.2 31.9204 113.522C31.7721 112.815 31.9769 112.158 31.878 111.444C32.4217 110.455 32.5911 109.572 32.6688 108.717C32.6123 108.526 32.3299 108.668 32.5064 108.343C31.4403 107.424 30.247 106.809 28.8349 106.082C27.8182 105.559 26.8651 104.704 26.152 104.379C25.1988 103.955 23.9561 104.167 22.8265 103.814C22.0357 103.566 21.3014 103.199 20.4612 103.043C19.4516 102.853 18.5831 102.945 17.7641 102.365C17.5029 101.623 17.8276 101.065 18.5125 100.542C19.4869 100.147 20.5459 100.945 21.3085 101.376C22.4946 102.033 24.1891 101.729 25.4106 102.379C25.5377 102.45 25.5095 102.556 25.6507 102.612C26.3073 102.86 27.324 102.782 28.1783 103.1C29.1456 103.467 29.9717 104.117 30.8119 104.393C31.878 104.753 33.1983 104.944 34.2292 104.457C34.7234 103.312 36.1002 102.754 36.7498 102.139C37.8159 102.189 38.5008 100.853 39.5457 100.818C40.0117 100.21 40.6613 100.26 41.0708 99.433C41.4309 99.1574 41.8404 99.0585 42.1369 98.5357C42.2358 98.465 42.4123 98.677 42.497 98.5569C42.6735 98.0976 42.4758 97.278 43.1748 97.3486C43.0689 96.9883 43.2525 96.9035 43.3584 96.522C43.4502 96.197 42.8924 96.0557 43.2948 95.6459C42.6735 94.3882 41.0778 93.399 40.9649 91.993C41.565 90.0217 43.3796 90.0076 44.5869 90.8625C45.3071 90.7424 46.5991 90.8554 46.7121 89.9087C48.3643 89.9581 49.4869 88.863 51.019 88.8842C51.0543 88.5591 50.8213 88.9901 50.6942 88.7923C51.245 88.6369 51.0402 87.8597 51.5627 87.4145C51.6474 86.4042 51.5203 84.9204 52.5864 84.4399C53.356 84.0867 54.4716 84.8003 55.1141 84.0937C55.4106 82.9774 54.867 82.0942 54.4222 81.1827C54.5493 81.1474 54.641 80.9778 54.7328 80.7941C54.634 80.5822 54.4575 80.3914 54.2174 80.2218C54.281 79.9604 54.4857 80.1794 54.5916 80.0593C54.3657 79.6566 53.6526 79.4093 53.2784 79.4093C53.2854 79.1761 53.3278 78.7593 52.9748 78.9571C53.0948 78.6604 53.2148 78.2788 53.1019 77.9043C52.763 77.6853 52.5441 77.5299 52.5229 77.113C52.5723 76.8587 52.7488 77.0777 52.883 77.1342C52.8971 76.9505 52.3393 76.2439 52.1063 76.6961C52.1063 76.0956 51.3297 75.6434 51.252 74.9015C51.6121 74.7319 52.0075 74.4281 52.0569 74.7955C52.7418 74.7531 52.417 73.9618 52.4735 73.7216C52.6359 73.9547 52.5864 73.9759 52.9324 74.0748C52.8124 74.202 52.6006 74.1879 52.6641 74.3857C52.9324 74.4846 53.0101 74.0395 53.0524 73.8558C53.123 74.1102 53.349 73.8205 53.5255 73.8417C53.9703 73.1281 55.7072 71.9622 55.2341 70.9731C55.686 70.8318 55.3189 70.1747 55.9755 69.991C55.8413 69.9203 55.9896 69.5953 55.8272 69.2561C55.9825 69.1078 56.3285 69.1007 56.6392 68.9665C56.3709 68.6909 56.6392 68.6132 56.4132 68.373C56.6745 68.7121 56.8722 67.6099 57.2746 67.836C57.2252 67.5887 57.2393 67.6593 57.2605 67.3626C57.55 67.6311 57.8818 67.2072 58.1148 67.0023C58.0371 66.9952 57.9524 66.9952 57.8959 67.0658C57.8324 66.762 58.4396 67.0376 58.6302 66.9175C58.6797 66.6136 58.7785 66.6631 58.842 66.3805C59.0044 66.437 59.0044 66.5359 59.0821 66.6136C59.2233 66.5077 59.2163 66.2321 59.3645 66.1191C59.3928 66.0979 59.7034 66.0201 59.6964 66.0272C59.9576 65.6739 59.9788 65.144 60.3036 64.7837C60.8896 64.1407 61.5956 63.95 62.3017 63.3918C64.1304 63.5684 65.5919 62.6287 67.3641 63.3494C67.2229 63.0738 67.6465 63.3211 67.4841 63.1374C67.7806 63.1374 68.1266 63.2999 68.4231 63.2929C69.108 62.7629 69.8423 62.4026 70.5695 62.6358C70.8166 62.6004 70.4636 62.3319 70.4777 62.3037C70.8025 62.0705 71.3462 62.3107 71.6992 62.6216C71.8757 62.5298 71.8475 62.3107 71.9534 62.6711C72.5676 62.4874 72.9348 62.2189 73.4714 62.127C73.6267 62.3461 73.7467 62.2048 73.8597 62.4379C75.1165 62.6004 76.3379 62.6216 77.623 62.876C78.5832 63.413 79.3457 63.3918 80.1647 63.0032C80.5248 63.2858 80.7154 62.9678 81.0332 63.1162C81.0544 62.9608 81.0755 62.8548 81.1956 62.8336C81.3791 62.8619 81.3156 63.2646 81.7957 63.2646C81.8098 63.3776 81.7816 63.5048 81.6686 63.6603C83.5679 64.8826 85.3895 62.9749 86.7028 62.014C86.6674 61.4982 86.8722 61.2863 86.9499 60.7493C88.0866 60.6009 88.5738 58.7144 89.6964 58.1916C91.6451 56.1496 89.5199 55.005 88.3055 53.8604C88.4891 53.387 88.3831 52.5391 87.6983 52.1152C87.4723 50.9211 86.7239 50.1015 86.2368 49.2395C86.2297 49.3173 86.2297 49.4021 86.3003 49.4586C85.9826 49.07 86.2438 48.0031 85.5236 47.5226C85.4601 46.8585 85.8131 46.1943 85.4389 45.516C85.8131 45.3606 85.8131 44.6258 85.686 44.2513C86.1238 43.4176 86.4274 42.5838 86.145 41.6159C86.3144 41.3898 86.611 41.0012 86.5121 40.7963C88.2772 40.2734 89.7882 38.8391 91.5533 38.3163C91.8851 37.6804 92.0122 37.2847 92.4924 36.9809C92.8666 37.1575 93.029 37.6874 93.3537 37.9347C96.298 40.1745 98.3031 36.0341 100.831 36.2673C101.078 36.5852 101.487 36.8537 101.615 37.3624C101.65 37.4967 101.494 37.6521 101.558 37.7934C101.77 38.3092 102.483 39.1571 102.843 39.8212C102.991 40.1038 102.984 40.556 103.415 40.7963C103.81 41.0153 104.185 40.768 104.643 40.9305C105.314 40.5631 105.83 39.6092 106.543 39.3832C106.423 39.6022 106.274 39.7082 106.091 39.687C106.472 40.4147 105.893 41.2484 105.653 41.9621C106.034 42.6898 106.246 43.6295 107.277 43.7214C108.287 43.8132 110.186 42.1387 111.09 40.9234C111.33 40.6055 111.393 40.1392 111.619 39.8212C111.739 39.6516 111.979 39.5881 112.113 39.4467C112.862 38.6201 113.434 37.6026 114.189 37.2564C114.599 38.0972 113.97 39.0369 113.688 39.9625C113.526 39.9484 113.349 39.8919 113.215 39.9767C112.947 40.3511 112.876 40.6691 112.841 40.98C111.245 42.2094 110.207 43.1844 108.979 44.6894C109.12 45.7916 108.258 46.7454 107.326 47.1199C107.242 47.0563 107.496 46.7384 107.221 46.5617ZM100.767 162.288C100.69 162.373 100.591 162.366 100.534 162.528C100.675 162.585 100.647 162.698 100.774 162.761C100.908 162.57 101.007 162.387 100.767 162.288ZM99.4116 185.908C98.875 186.254 99.1786 187.081 99.6446 187.158C99.8141 186.671 99.8211 186.233 99.4116 185.908ZM103.944 41.4463C104.283 41.5169 104.7 41.8702 104.926 41.5311C104.573 41.4321 104.192 41.1919 103.944 41.4463ZM106.246 44.1453C106.458 44.3997 107.122 44.6399 107.369 44.3078C106.945 44.0888 106.592 44.1029 106.246 44.1453ZM92.0193 38.0831C92.4218 38.2315 92.8736 38.5777 93.1419 38.2456C92.7324 38.069 92.337 37.9418 92.0193 38.0831ZM105.081 53.0125C106.402 53.7615 107.531 53.8109 108.491 53.2528C107.291 52.956 106.091 52.6593 105.081 53.0125ZM146.089 84.4541C146.442 84.5106 146.844 84.7438 147.105 84.4682C146.752 84.4188 146.371 84.2492 146.089 84.4541ZM149.033 87.5134C149.195 87.7183 149.506 87.3863 149.372 87.2379C149.223 87.2874 148.948 87.2308 149.033 87.5134ZM136.218 97.6666C136.536 97.815 136.811 97.7867 137.086 97.7796C137.418 97.3486 137.616 96.9106 137.552 96.4513C136.804 95.766 136.317 96.9318 136.218 97.6666ZM141.824 106.612C142.812 107.219 143.985 106.668 145.086 106.958C145.093 106.612 145.651 106.732 145.326 106.534C144.133 106.484 142.883 106.202 141.824 106.612ZM142.77 110.229C141.852 110.54 141.259 111.564 140.73 112.532C141.167 112.879 141.217 113.621 141.838 113.719C142.05 113.084 141.471 112.667 141.669 112.038C142.191 111.805 143.024 110.893 142.77 110.229ZM136.938 115.627C137.171 115.825 137.312 115.677 137.545 115.874C137.722 115.726 137.877 115.486 138.018 115.203C137.92 114.97 137.778 114.751 137.538 114.56C137.214 114.659 136.853 115.302 136.938 115.627ZM165.597 133.185C166.091 133.708 166.868 133.665 167.305 133.305C167.023 132.81 165.985 132.726 165.597 133.185ZM81.3156 87.4357C81.6827 87.5276 82.1064 87.8385 82.3676 87.5629C81.9793 87.4145 81.5839 87.1884 81.3156 87.4357ZM168.633 137.233C168.908 137.573 169.642 137.919 169.833 137.255C169.536 136.93 168.852 136.598 168.633 137.233ZM80.9908 88.001C81.3227 88.1282 81.6898 88.3754 81.9299 88.1564C81.6051 88.0646 81.2803 87.9656 80.9908 88.001ZM82.4382 88.9124C82.3464 88.863 82.2476 88.8064 82.1558 88.7499C81.951 88.9972 82.3394 89.2162 82.4382 88.9124ZM82.7418 91.6962C82.7983 91.6044 82.8477 91.5055 82.9042 91.4136C82.8124 91.3571 82.7136 91.3076 82.6218 91.2511C82.4241 91.4631 82.4665 91.6114 82.7418 91.6962ZM47.6088 111.487C47.9901 111.508 48.4914 111.932 48.7667 111.579C48.3713 111.515 47.87 111.07 47.6088 111.487ZM91.2003 153.908C91.5816 153.859 91.6945 153.286 91.2779 153.11C90.9461 153.385 91.0167 153.64 91.2003 153.908ZM91.2285 156.353C92.4782 157.187 94.1233 157.61 95.133 156.876C93.7279 156.317 92.3653 155.936 91.2285 156.353ZM100.089 172.936C99.4752 171.869 99.6164 170.434 99.9129 169.099C99.7858 168.788 99.5034 167.863 99.0092 168.216C98.7268 168.788 99.1292 169.353 99.1433 169.968C99.1716 171.6 98.8962 173.374 100.605 174.342C101.141 173.706 100.329 173.345 100.089 172.936ZM27.0275 129.306C27.1334 129.186 27.3311 129.405 27.4017 129.143C27.2322 128.924 26.8862 129.115 27.0275 129.306Z" fill="#B67A82"/>
<path fill-rule="evenodd" clip-rule="evenodd" d="M107.807 38.394C107.433 38.2315 107.404 39.2772 106.79 39.037C106.889 38.5919 107.03 37.5603 107.658 37.6592C107.962 37.85 107.743 38.1962 107.877 38.4364C107.821 38.5071 107.786 38.4364 107.807 38.394Z" fill="#B67A82"/>
<path fill-rule="evenodd" clip-rule="evenodd" d="M146.039 69.2915C146.936 68.2317 148.609 68.0833 149.838 67.511C150.057 67.5675 149.598 67.8148 149.817 67.8713C149.442 67.9349 148.998 67.8784 148.708 68.1822C148.602 68.2953 148.687 68.6132 148.609 68.6839C147.96 69.3339 147.014 69.1219 146.039 69.2915Z" fill="#B67A82"/>
<path fill-rule="evenodd" clip-rule="evenodd" d="M185.79 102.45C187.054 102.16 188.494 102.295 189.892 101.962C191.332 101.623 192.73 100.818 194.312 100.903C194.834 100.931 195.321 101.228 195.83 101.199C196.769 101.143 198.117 99.9135 199 101.214C198.357 102.542 196.868 101.468 195.879 101.786C195.392 101.941 194.884 102.189 194.361 102.33C192.003 102.98 189.369 102.026 187.018 102.768C186.411 102.415 186.383 102.839 185.79 102.45ZM193.959 101.546C193.818 101.814 193.959 101.779 194.164 101.849C194.206 101.779 194.241 101.708 194.284 101.637C194.156 101.539 194.079 101.623 193.959 101.546Z" fill="#B67A82"/>
<path fill-rule="evenodd" clip-rule="evenodd" d="M141.944 73.2411C142.071 73.559 141.436 73.8911 141.111 73.8911C141.344 73.3824 141.845 73.6368 141.944 73.2411Z" fill="#B67A82"/>
<path fill-rule="evenodd" clip-rule="evenodd" d="M102.109 143.995C102.229 143.896 102.243 144.059 102.321 144.115C102.391 144.151 102.427 144.059 102.469 144.016C102.603 144.158 102.525 144.356 102.66 144.497C102.575 144.539 102.271 144.129 102.109 143.995Z" fill="#B67A82"/>
<path fill-rule="evenodd" clip-rule="evenodd" d="M103.599 145.486C103.811 145.656 103.839 145.966 104.044 146.016C104.284 146.178 103.74 146.256 103.952 146.341C103.86 146.313 103.232 145.656 103.599 145.486Z" fill="#B67A82"/>
<path fill-rule="evenodd" clip-rule="evenodd" d="M112.756 157.568C112.657 157.653 112.678 157.533 112.728 157.455C113.61 158.374 114.846 159.363 115.714 160.444C115.495 160.613 115.467 160.098 115.284 160.387C115.199 160.493 115.284 160.55 115.234 160.642C115.453 160.868 115.495 160.437 115.707 160.627C115.135 160.981 116.018 161.299 115.721 161.758C114.168 160.387 113.504 159.094 112.756 157.568Z" fill="#B67A82"/>
<path fill-rule="evenodd" clip-rule="evenodd" d="M109.424 171.939C112.573 174.116 114.832 177.337 116.272 180.001C113.801 177.832 111.012 174.751 109.424 171.939Z" fill="#B67A82"/>
<path fill-rule="evenodd" clip-rule="evenodd" d="M116.788 180.573C117.691 180.757 118.419 181.923 118.906 182.608C120.417 183.682 120.671 185.053 121.871 185.964C120.085 185.032 117.981 182.425 116.788 180.573Z" fill="#B67A82"/>
<path fill-rule="evenodd" clip-rule="evenodd" d="M128.981 193.892C129.708 193.941 129.553 194.747 130.097 194.895C130.033 194.966 129.927 194.867 129.878 194.959C130.118 195.058 130.542 195.446 130.527 195.793C129.998 195.326 129.419 194.641 128.981 193.892Z" fill="#B67A82"/>
<path fill-rule="evenodd" clip-rule="evenodd" d="M89.9012 189.045C88.4326 187.703 88.828 185.837 88.4326 184.198C89.0469 184.163 88.9763 185.187 89.3293 185.915C89.7882 186.876 90.6779 187.653 90.3884 188.847C90.2542 188.784 90.2119 189.059 90.0848 189.052C90.0071 188.995 89.9506 188.995 89.9012 189.045Z" fill="#B67A82"/>
<path fill-rule="evenodd" clip-rule="evenodd" d="M119.252 30.8339C119.343 31.7524 118.087 33.0666 117.19 33.4976C117.253 32.3812 118.115 30.6431 119.252 30.8339Z" fill="#B67A82"/>
<path fill-rule="evenodd" clip-rule="evenodd" d="M30.1343 142.356C29.8449 143.048 29.7531 143.903 29.1176 144.49C28.5245 145.041 27.0701 145.253 26.4346 144.942C25.4462 144.454 25.2132 143.246 25.2485 142.405C25.8839 141.183 26.6394 140.399 27.5431 140.152C29.0329 140.222 29.8237 141.289 30.1343 142.356ZM28.3763 142.49C28.4469 142.688 28.4681 142.533 28.6587 142.653C28.8705 142.405 28.4751 142.186 28.3763 142.49Z" fill="#B67A82"/>
</svg>
