<svg width="104" height="108" viewBox="0 0 104 108" fill="none" xmlns="http://www.w3.org/2000/svg">
<path fill-rule="evenodd" clip-rule="evenodd" d="M5.90424 44.1441C4.18084 27.0648 44.4158 7.14313 66.515 17.8475C88.6142 28.5518 97.5409 75.5249 85.3097 82.5866C73.0785 89.6483 57.8389 63.2526 48.32 58.4124C38.8012 53.5723 7.62765 61.2234 5.90424 44.1441Z" fill="#F5CDAA"/>
<path d="M51.9999 56.8018C44.3242 56.8018 38.0796 50.0721 38.0796 41.8C38.0796 33.5279 44.3241 26.798 51.9999 26.798C59.6757 26.798 65.9203 33.5278 65.9203 41.8C65.9203 50.0719 59.6756 56.8018 51.9999 56.8018ZM51.9999 28.5029C45.1966 28.5029 39.6616 34.4679 39.6616 41.8C39.6616 49.1319 45.1965 55.0969 51.9999 55.0969C58.8034 55.0969 64.3383 49.1319 64.3383 41.8C64.3383 34.4679 58.8033 28.5029 51.9999 28.5029V28.5029Z" fill="black"/>
<path d="M49.5768 38.5285C49.1399 38.5285 48.7858 38.1468 48.7858 37.676C48.7858 37.2143 48.4373 36.8388 48.0089 36.8388C47.5805 36.8388 47.232 37.2143 47.232 37.676C47.232 38.1468 46.8779 38.5285 46.441 38.5285C46.0042 38.5285 45.65 38.1468 45.65 37.676C45.65 36.2742 46.7082 35.1339 48.0089 35.1339C49.3096 35.1339 50.3678 36.2742 50.3678 37.676C50.3678 38.1468 50.0137 38.5285 49.5768 38.5285V38.5285Z" fill="black"/>
<path d="M57.5588 38.5285C57.1219 38.5285 56.7677 38.1468 56.7677 37.676C56.7677 37.2143 56.4193 36.8388 55.9909 36.8388C55.5625 36.8388 55.214 37.2143 55.214 37.676C55.214 38.1468 54.8598 38.5285 54.423 38.5285C53.9861 38.5285 53.632 38.1468 53.632 37.676C53.632 36.2742 54.6901 35.1339 55.9909 35.1339C57.2916 35.1339 58.3498 36.2742 58.3498 37.676C58.3498 38.1468 57.9956 38.5285 57.5588 38.5285Z" fill="black"/>
<path d="M52 50.364C48.9751 50.364 46.3008 48.9487 45.1866 46.7584C44.9766 46.3456 45.1169 45.8274 45.4999 45.6011C45.8832 45.3749 46.3639 45.526 46.5738 45.9388C47.4014 47.5658 49.582 48.659 52 48.659C54.4178 48.659 56.5984 47.5659 57.4261 45.9388C57.6361 45.526 58.1169 45.3749 58.5 45.6011C58.883 45.8275 59.0233 46.3456 58.8133 46.7584C57.6991 48.9487 55.0247 50.364 52 50.364Z" fill="black"/>
<path d="M78.2089 54.0301C77.7719 54.0301 77.4179 54.4117 77.4179 54.8825V55.5757C77.4179 58.3135 75.3511 60.5408 72.8107 60.5408H61.0437C60.0651 60.5408 59.1525 61.1077 58.6621 62.0203L52.6727 73.1643C52.3729 73.7223 51.6266 73.7214 51.3272 73.1643L45.3378 62.0203C44.8474 61.1078 43.9349 60.5408 42.9563 60.5408H31.1892C28.6488 60.5408 26.582 58.3135 26.582 55.5757V27.6701C26.582 24.9324 28.6488 22.705 31.1892 22.705H31.8599C32.2967 22.705 32.6509 22.3233 32.6509 21.8525C32.6509 21.3817 32.2967 21 31.8599 21H31.1892C27.7765 21 25 23.9922 25 27.6701V55.5757C25 59.2536 27.7765 62.2458 31.1892 62.2458H42.9562C43.3722 62.2458 43.7602 62.4869 43.9688 62.8748L49.9582 74.0187C50.8667 75.7091 53.132 75.7115 54.0418 74.0187L60.0312 62.8747C60.2397 62.4866 60.6276 62.2457 61.0438 62.2457H72.8108C76.2234 62.2457 79 59.2535 79 55.5755V54.8824C78.9999 54.4117 78.6458 54.0301 78.2089 54.0301Z" fill="black"/>
<path d="M72.8107 21H35.5579C35.1211 21 34.7669 21.3817 34.7669 21.8525C34.7669 22.3233 35.1211 22.705 35.5579 22.705H72.8107C75.3511 22.705 77.4179 24.9323 77.4179 27.6701V51.0084C77.4179 51.4792 77.7719 51.8609 78.2089 51.8609C78.6458 51.8609 78.9999 51.4792 78.9999 51.0084V27.6701C78.9999 23.9922 76.2234 21 72.8107 21V21Z" fill="black"/>
</svg>
